<mxfile host="app.diagrams.net" modified="2023-04-30T23:57:20.512Z" agent="Mozilla/5.0 (Windows NT 10.0; Win64; x64) AppleWebKit/537.36 (KHTML, like Gecko) Chrome/112.0.0.0 Safari/537.36" version="21.2.3" etag="K3yh2vjVjLVk8GL07KOW" type="github">
  <diagram name="Page-1" id="TCeGXnPkIroZiUYVxPaQ">
    <mxGraphModel>
      <root>
        <mxCell id="0" />
        <mxCell id="1" parent="0" />
      </root>
    </mxGraphModel>
  </diagram>
</mxfile>
